<?xml version="1.0" encoding="UTF-8"?>
<svg width="68px" height="68px" viewBox="0 0 68 68" version="1.1" xmlns="http://www.w3.org/2000/svg" xmlns:xlink="http://www.w3.org/1999/xlink">
    <title>earth</title>
    <g id="页面-1" stroke="none" stroke-width="1" fill="none" fill-rule="evenodd">
        <g id="桌面端-HD" transform="translate(-532.000000, -535.000000)" fill-rule="nonzero">
            <g id="earth" transform="translate(532.000000, 535.000000)">
                <rect id="矩形" fill="#000000" opacity="0" x="0" y="0" width="68" height="68"></rect>
                <path d="M58.0414,9.9586 C51.6188,3.536 43.0814,0 34,0 C24.9186,0 16.3812,3.536 9.9586,9.9586 C3.536,16.3812 0,24.9186 0,34 C0,43.0814 3.536,51.6188 9.9586,58.0414 C16.3812,64.464 24.9186,68 34,68 C43.0814,68 51.6188,64.464 58.0414,58.0414 C64.464,51.6188 68,43.0814 68,34 C68,24.9186 64.464,16.3812 58.0414,9.9586 Z M62.5498,22.9874 C61.8868,21.794 60.2208,21.2262 58.0448,20.485 C55.709,19.6894 54.8828,17.289 53.9274,14.5078 C53.0978,12.0938 52.241,9.6016 50.2044,8.0512 C55.8204356,11.5707709 60.1502647,16.8092559 62.5498,22.9874 L62.5498,22.9874 Z M53.0094,34.6494 C53.2678,36.9512 53.533,39.3346 50.6736,42.5442 C49.9018,43.4112 49.4496,44.6182 48.9702,45.8966 C47.8618,48.858 46.8146,51.6562 42.3538,51.697 C42.228,51.5474 41.8744,50.983 41.5582,49.2048 C41.2692,47.566 41.1026,45.4444 40.9224,43.2038 C40.6504,39.763 40.341,35.8598 39.491,32.623 C38.403,28.4852 36.5772,26.0406 33.9116,25.1498 C32.7408087,24.7604447 31.5142178,24.5652009 30.2804,24.5718 C29.3352,24.5718 28.4784,24.6738 27.7236,24.7622 C27.1354,24.8302 26.5778,24.8982 26.1086,24.8982 C25.313,24.8982 24.412,24.8982 23.3002,22.355 C21.7056,18.7 22.882,12.8418 27.5638,9.7512 C30.1308,8.058 31.9022,7.3338 33.4866,7.3338 C34.7514,7.3338 36.1148,7.7724 38.0494,8.806 C39.6938158,9.72330314 41.5487149,10.196695 43.4316,10.1796 C43.9484,10.1796 44.4176,10.1524 44.8698,10.1252 C45.2506,10.1014 45.6076,10.081 45.9408,10.081 C46.6888,10.081 47.294,10.1796 48.0046,10.6624 C49.3136,11.5566 49.9936,13.532 50.711,15.6196 C51.799,18.7884 53.0332,22.3788 56.95,23.7116 C57.477,23.8918 58.3814,24.1978 59.024,24.4664 C58.4698,25.0376 57.545,25.8638 56.6372,26.673 C56.0524,27.1966 55.3894,27.7882 54.655,28.458 C52.5334,30.3926 52.785,32.657 53.0094,34.6528 L53.0094,34.6494 Z M3.4034,33.7382 C3.7706,33.8028 4.165,33.881 4.573,33.966 C6.4838,34.374 7.378,34.7412 7.769,34.9486 C7.5888,35.2988 7.225,35.8156 6.9836,36.1556 C6.1438,37.349 5.0966,38.8348 5.4944,40.4702 C5.763,41.5752 5.5352,42.9284 5.1442,44.1796 C3.98689844,40.9082512 3.39701213,37.4632232 3.39998871,33.9932 L3.4034,33.7314 L3.4034,33.7382 Z M34,64.6 C22.7274997,64.5911237 12.3708205,58.3914823 7.038,48.4602 C7.9288,46.7636 9.5812,43.01 8.8094,39.7256 C8.8638,39.3958 9.4248,38.6002 9.7614,38.1208 C10.6828,36.8118 11.8286,35.1866 10.9786,33.4628 C10.3836,32.2524 8.789,31.4364 5.6542,30.7292 C4.97856503,30.5795545 4.29951145,30.4457844 3.6176,30.328 C5.44,15.181 18.3668,3.4034 33.9966,3.4034 C39.3618,3.4034 44.4074,4.794 48.7934,7.2284 C47.890987,6.84547727 46.9174458,6.65888186 45.9374,6.681 C45.5056,6.681 45.0772,6.7048 44.6624,6.732 C44.2504196,6.75994181 43.8377095,6.77581527 43.4248,6.7796 C42.4592,6.7796 41.2556,6.664 39.644,5.8038 C37.1824,4.4948 35.3396,3.9338 33.4832,3.9338 C31.1848,3.9338 28.8524,4.8246 25.687,6.9122 C22.9164794,8.76185118 20.8670774,11.5087943 19.8832,14.6914 C18.9006,17.8228 19.006,21.029 20.179,23.715 C21.5628,26.8838 23.3886,28.2982 26.1018,28.2982 C26.7716,28.2982 27.4244,28.22 28.1146,28.1384 C28.8116,28.0568 29.529,27.9718 30.2736,27.9718 C31.195,27.9718 32.0076,28.101 32.827,28.373 C34.3196,28.8728 35.4212,30.5456 36.1964,33.4866 C36.9716,36.4276 37.264,40.171 37.5258,43.469 C37.7434,46.223 37.9474,48.8206 38.3996,50.7824 C38.675,51.9724 39.0286,52.8768 39.4876,53.5466 C40.171,54.5462 41.1502,55.097 42.245,55.097 C45.2506,55.097 47.651,54.128 49.3816,52.2172 C50.8198,50.6294 51.5542,48.6676 52.1458,47.09 C52.4926,46.1618 52.853,45.1996 53.2032,44.8052 C57.069,40.4634 56.6712,36.8866 56.3788,34.272 C56.1646,32.3544 56.1612,31.6744 56.9364,30.9672 C57.6572,30.311 58.3134,29.7228 58.8914,29.206 C60.1256,28.1044 61.0164,27.3088 61.642,26.6288 C62.0704,26.1596 63.0768,25.0614 62.798,23.6878 L62.7912,23.6504 C63.9574,26.8838 64.5932,30.3688 64.5932,34 C64.5932,50.8742 50.8674,64.6 33.9932,64.6 L34,64.6 Z" id="形状" fill="#FFFFFF"></path>
            </g>
        </g>
    </g>
</svg>