<?xml version="1.0" encoding="UTF-8"?>
<svg width="70px" height="70px" viewBox="0 0 70 70" version="1.1" xmlns="http://www.w3.org/2000/svg" xmlns:xlink="http://www.w3.org/1999/xlink">
    <title>眼镜</title>
    <g id="页面-1" stroke="none" stroke-width="1" fill="none" fill-rule="evenodd">
        <g id="桌面端-HD" transform="translate(-653.000000, -535.000000)" fill-rule="nonzero">
            <g id="编组" transform="translate(532.000000, 535.000000)">
                <g id="眼镜" transform="translate(121.000000, 0.000000)">
                    <rect id="矩形" fill="#000000" opacity="0" x="0" y="0" width="70" height="70"></rect>
                    <path d="M18.7031386,13.5495584 L4.77272727,37.4146258 L6.56132329,38.43421 L20.0652232,15.3032432 L25.3828568,13.9030143 L24.846278,11.9318182 L18.7031386,13.5495584 Z M31.2852237,40.1199225 L38.7147763,40.1199225 L38.7147763,42.1590909 L31.2852237,42.1590909 L31.2852237,40.1199225 Z M51.2968614,13.5495584 L45.153722,11.9318182 L44.6171432,13.9030143 L49.9347768,15.3032432 L63.4386767,38.43421 L65.2272727,37.4146258 L51.2968614,13.5495584 Z" id="形状" fill="#FFFFFF"></path>
                    <path d="M49.21875,58.8636364 C43.027811,58.8636364 37.9934211,53.7831439 37.9934211,47.5355114 L37.9934211,40.9446023 C37.9934211,38.1022727 40.2793062,35.7954545 43.0958433,35.7954545 L61.600628,35.7954545 C64.0361842,35.7954545 66.0227273,37.8001894 66.0227273,40.2580492 L66.0227273,49.5951705 C66.0227273,54.703125 61.8999701,58.8636364 56.8383672,58.8636364 L49.21875,58.8636364 Z M13.1616328,58.8636364 C8.1000299,58.8636364 3.97727273,54.703125 3.97727273,49.5951705 L3.97727273,40.2580492 C3.97727273,37.8001894 5.96381579,35.7954545 8.39937201,35.7954545 L26.9041567,35.7954545 C29.7206938,35.7954545 32.0065789,38.1022727 32.0065789,40.9446023 L32.0065789,47.5355114 C32.0065789,53.7831439 26.972189,58.8636364 20.78125,58.8636364 L13.1616328,58.8636364 Z" id="形状" fill="#FFFFFF"></path>
                </g>
            </g>
        </g>
    </g>
</svg>